<?xml version="1.0" encoding="utf-8"?>
<!-- Generator: Adobe Illustrator 16.0.0, SVG Export Plug-In . SVG Version: 6.00 Build 0)  -->
<!DOCTYPE svg PUBLIC "-//W3C//DTD SVG 1.1//EN" "http://www.w3.org/Graphics/SVG/1.1/DTD/svg11.dtd">
<svg version="1.1" xmlns="http://www.w3.org/2000/svg" xmlns:xlink="http://www.w3.org/1999/xlink" x="0px" y="0px"
	 width="234.334px" height="235px" viewBox="0 0 234.334 235" enable-background="new 0 0 234.334 235" xml:space="preserve">
<g id="Layer_1">
</g>
<g id="Layer_2">
	<g>
		<circle fill="#594E52" cx="115.389" cy="117.5" r="113.667"/>
		<g>
			<linearGradient id="SVGID_1_" gradientUnits="userSpaceOnUse" x1="140.458" y1="82.6914" x2="140.458" y2="137.4238">
				<stop  offset="0.698" style="stop-color:#A95676"/>
				<stop  offset="0.7537" style="stop-color:#AE8198"/>
				<stop  offset="0.8113" style="stop-color:#B2A5B8"/>
				<stop  offset="0.8662" style="stop-color:#B4BFD1"/>
				<stop  offset="0.9169" style="stop-color:#B5D1E4"/>
				<stop  offset="0.9618" style="stop-color:#B5DDEF"/>
				<stop  offset="0.9962" style="stop-color:#B5E0F3"/>
			</linearGradient>
			<path fill-rule="evenodd" clip-rule="evenodd" fill="url(#SVGID_1_)" d="M124.51,84.318l7.483,27.52
				c0,0,4.675,19.361,6.953,25.586l17.46-0.017l-6.967-25.614l-7.472-27.475c0,0-0.441-1.627-3.156-1.627
				c-2.714,0-3.155,1.627-3.155,1.627H124.51z"/>
			<path fill-rule="evenodd" clip-rule="evenodd" fill="#A95676" d="M99.933,151.691c0,0-0.441,1.627-3.155,1.627
				s-3.155-1.627-3.155-1.627l-18.718-69h17.458l18.718,69"/>
			<line fill-rule="evenodd" clip-rule="evenodd" x1="99.933" y1="151.691" x2="114.235" y2="151.691"/>
			<linearGradient id="SVGID_2_" gradientUnits="userSpaceOnUse" x1="107.084" y1="151.6914" x2="107.084" y2="153.3184">
				<stop  offset="0" style="stop-color:#B5E0F3"/>
				<stop  offset="1" style="stop-color:#6E8993"/>
			</linearGradient>
			<path fill-rule="evenodd" clip-rule="evenodd" fill="url(#SVGID_2_)" d="M99.933,151.691c0,0-0.441,1.627-3.155,1.627h17.458
				c2.714,0,3.154-1.627,3.154-1.627H99.933z"/>
			<g>
				<polygon fill-rule="evenodd" clip-rule="evenodd" fill="#B5E0F3" points="99.933,151.691 117.39,151.691 135.656,84.318 
					118.199,84.318 				"/>
			</g>
			
				<linearGradient id="SVGID_3_" gradientUnits="userSpaceOnUse" x1="-1098.3057" y1="644.1426" x2="-1098.3057" y2="645.7695" gradientTransform="matrix(-1 0 0 -1 -969.8008 728.4609)">
				<stop  offset="0" style="stop-color:#B5E0F3"/>
				<stop  offset="1" style="stop-color:#6E8993"/>
			</linearGradient>
			<path fill-rule="evenodd" clip-rule="evenodd" fill="url(#SVGID_3_)" d="M135.656,84.318c0,0,0.441-1.627,3.155-1.627h-17.457
				c-2.714,0-3.155,1.627-3.155,1.627H135.656z"/>
			<path fill-rule="evenodd" clip-rule="evenodd" fill="#A95676" d="M52.115,151.691c0,0-0.441,1.627-3.156,1.627
				c-2.713,0-3.154-1.627-3.154-1.627l-18.718-69h17.458l18.717,69"/>
			<linearGradient id="SVGID_4_" gradientUnits="userSpaceOnUse" x1="59.2656" y1="151.6914" x2="59.2656" y2="153.3184">
				<stop  offset="0" style="stop-color:#B5E0F3"/>
				<stop  offset="1" style="stop-color:#6E8993"/>
			</linearGradient>
			<path fill-rule="evenodd" clip-rule="evenodd" fill="url(#SVGID_4_)" d="M52.115,151.691c0,0-0.441,1.627-3.156,1.627h17.459
				c2.713,0,3.154-1.627,3.154-1.627H52.115z"/>
			<g>
				<polygon fill-rule="evenodd" clip-rule="evenodd" fill="#B5E0F3" points="52.115,151.691 69.572,151.691 87.839,84.318 
					70.382,84.318 				"/>
			</g>
			
				<linearGradient id="SVGID_5_" gradientUnits="userSpaceOnUse" x1="-1050.4888" y1="644.1426" x2="-1050.4888" y2="645.7695" gradientTransform="matrix(-1 0 0 -1 -969.8008 728.4609)">
				<stop  offset="0" style="stop-color:#B5E0F3"/>
				<stop  offset="1" style="stop-color:#6E8993"/>
			</linearGradient>
			<path fill-rule="evenodd" clip-rule="evenodd" fill="url(#SVGID_5_)" d="M87.839,84.318c0,0,0.441-1.627,3.156-1.627H73.536
				c-2.713,0-3.154,1.627-3.154,1.627H87.839z"/>
			<path fill="#B5E0F3" d="M171.134,113.143l17.67,1.458c20.368,0,13.916,22.855,13.916,22.855l-0.019-0.002
				c0,0-4.319,15.911-30.866,15.911c-26.539,0-31.623-12.569-32.841-15.895l16.824-2.224c0.588,2.16,0.588,2.16,15.046,2.208
				c7.612,0.025,8.755-4.655,8.755-4.655s4.188-9.932-9.04-9.932l-17.67-1.457c-20.368,0-13.916-22.855-13.916-22.855
				s3.187-11.739,20.91-15.051c2.91-0.544,10.112-1.869,13.857-1.869c26.538,0,27.724,13.579,28.94,16.903l-22.452,2.969
				c-0.348-0.617-1.807-2.952-9.416-2.952c-7.612,0-8.757,4.655-8.757,4.655s-4.189,9.932,9.04,9.932"/>
		</g>
	</g>
</g>
<g id="Layer_3">
</g>
</svg>
