<?xml version="1.0" encoding="utf-8"?>
<!-- Generator: Adobe Illustrator 16.0.0, SVG Export Plug-In . SVG Version: 6.00 Build 0)  -->
<!DOCTYPE svg PUBLIC "-//W3C//DTD SVG 1.1//EN" "http://www.w3.org/Graphics/SVG/1.1/DTD/svg11.dtd">
<svg version="1.1" xmlns="http://www.w3.org/2000/svg" xmlns:xlink="http://www.w3.org/1999/xlink" x="0px" y="0px"
	 width="235px" height="235px" viewBox="0 0 235 235" enable-background="new 0 0 234.334 235" xml:space="preserve">
<g id="Layer_1">
	<circle fill="#594E52" cx="116.333" cy="117.667" r="113.667"/>
</g>
<g id="Layer_2">
	<g>
		<g>
			<polygon fill-rule="evenodd" clip-rule="evenodd" fill="#A95676" points="84.925,73.217 105.981,73.217 132.362,170.467
				111.306,170.467 			"/>
			<polygon fill-rule="evenodd" clip-rule="evenodd" fill="#A95676" points="32,72.973 53.057,72.973 79.438,170.223
				58.382,170.223 			"/>
			<polygon fill-rule="evenodd" clip-rule="evenodd" fill="#B5E0F3" points="105.819,72.973 84.763,72.973 58.382,170.223
				79.438,170.223 			"/>
			<polygon fill-rule="evenodd" clip-rule="evenodd" fill="#B5E0F3" points="205.295,73.217 137.688,73.217 111.306,170.467
				178.913,170.467 			"/>
		</g>
		<polygon fill-rule="evenodd" clip-rule="evenodd" fill="#A95676" points="137.688,73.217 163.374,73.217 185.129,147.664
			159.25,147.666 		"/>
		<polygon fill-rule="evenodd" clip-rule="evenodd" fill="#AFA94C" points="185.129,147.664 117.531,147.711 111.408,170.5
			179.013,170.499 		"/>
		<polygon fill-rule="evenodd" clip-rule="evenodd" fill="#AFA94C" points="205.295,73.217 137.688,73.217 144.229,95.774
			199.208,95.839 		"/>
	</g>
</g>
</svg>
